<?xml version="1.0" encoding="us-ascii" standalone="no"?><svg xmlns="http://www.w3.org/2000/svg" xmlns:xlink="http://www.w3.org/1999/xlink" contentStyleType="text/css" height="1551px" preserveAspectRatio="none" style="width:945px;height:1551px;background:#FFFFFF;" version="1.1" viewBox="0 0 945 1551" width="945px" zoomAndPan="magnify"><defs/><g><text fill="#000000" font-family="sans-serif" font-size="14" font-weight="bold" lengthAdjust="spacing" textLength="91" x="428.5" y="28.5352">OID4VCI &#48156;&#44553;</text><rect fill="#EEF7FF" height="1501.793" style="stroke:#181818;stroke-width:0.5;" width="616" x="317" y="43.4883"/><text fill="#000000" font-family="sans-serif" font-size="13" font-weight="bold" lengthAdjust="spacing" textLength="41" x="604.5" y="56.0566">Issuer</text><rect fill="none" height="190.8184" style="stroke:#000000;stroke-width:1.5;" width="506" x="311" y="180.5977"/><rect fill="none" height="180.1289" style="stroke:#000000;stroke-width:1.5;" width="361.5" x="125.5" y="575.5898"/><rect fill="none" height="118.2422" style="stroke:#000000;stroke-width:1.5;" width="660.5" x="125.5" y="799.0293"/><rect fill="none" height="149.8633" style="stroke:#000000;stroke-width:1.5;" width="813.5" x="125.5" y="1224.998"/><line style="stroke:#181818;stroke-width:0.5;stroke-dasharray:5.0,5.0;" x1="31" x2="31" y1="118.9766" y2="1465.793"/><line style="stroke:#181818;stroke-width:0.5;stroke-dasharray:5.0,5.0;" x1="162.5" x2="162.5" y1="118.9766" y2="1465.793"/><line style="stroke:#181818;stroke-width:0.5;stroke-dasharray:5.0,5.0;" x1="399" x2="399" y1="118.9766" y2="1465.793"/><line style="stroke:#181818;stroke-width:0.5;stroke-dasharray:5.0,5.0;" x1="626" x2="626" y1="118.9766" y2="1465.793"/><line style="stroke:#181818;stroke-width:0.5;stroke-dasharray:5.0,5.0;" x1="853" x2="853" y1="118.9766" y2="1465.793"/><text fill="#000000" font-family="sans-serif" font-size="14" lengthAdjust="spacing" textLength="46" x="5" y="116.0234">Holder</text><ellipse cx="31" cy="50.9883" fill="#E2E2F0" rx="8" ry="8" style="stroke:#181818;stroke-width:0.5;"/><path d="M31,58.9883 L31,85.9883 M18,66.9883 L44,66.9883 M31,85.9883 L18,100.9883 M31,85.9883 L44,100.9883 " fill="none" style="stroke:#181818;stroke-width:0.5;"/><text fill="#000000" font-family="sans-serif" font-size="14" lengthAdjust="spacing" textLength="46" x="5" y="1478.3281">Holder</text><ellipse cx="31" cy="1489.7813" fill="#E2E2F0" rx="8" ry="8" style="stroke:#181818;stroke-width:0.5;"/><path d="M31,1497.7813 L31,1524.7813 M18,1505.7813 L44,1505.7813 M31,1524.7813 L18,1539.7813 M31,1524.7813 L44,1539.7813 " fill="none" style="stroke:#181818;stroke-width:0.5;"/><rect fill="#E2E2F0" height="30.4883" rx="2.5" ry="2.5" style="stroke:#181818;stroke-width:0.5;" width="55" x="135.5" y="87.4883"/><text fill="#000000" font-family="sans-serif" font-size="14" lengthAdjust="spacing" textLength="41" x="142.5" y="108.0234">Wallet</text><rect fill="#E2E2F0" height="30.4883" rx="2.5" ry="2.5" style="stroke:#181818;stroke-width:0.5;" width="55" x="135.5" y="1464.793"/><text fill="#000000" font-family="sans-serif" font-size="14" lengthAdjust="spacing" textLength="41" x="142.5" y="1485.3281">Wallet</text><rect fill="#E2E2F0" height="30.4883" rx="2.5" ry="2.5" style="stroke:#181818;stroke-width:0.5;" width="156" x="321" y="87.4883"/><text fill="#000000" font-family="sans-serif" font-size="14" lengthAdjust="spacing" textLength="142" x="328" y="108.0234">Authorization Server</text><rect fill="#E2E2F0" height="30.4883" rx="2.5" ry="2.5" style="stroke:#181818;stroke-width:0.5;" width="156" x="321" y="1464.793"/><text fill="#000000" font-family="sans-serif" font-size="14" lengthAdjust="spacing" textLength="142" x="328" y="1485.3281">Authorization Server</text><rect fill="#E2E2F0" height="30.4883" rx="2.5" ry="2.5" style="stroke:#181818;stroke-width:0.5;" width="102" x="575" y="87.4883"/><text fill="#000000" font-family="sans-serif" font-size="14" lengthAdjust="spacing" textLength="88" x="582" y="108.0234">OID4VCI SDK</text><rect fill="#E2E2F0" height="30.4883" rx="2.5" ry="2.5" style="stroke:#181818;stroke-width:0.5;" width="102" x="575" y="1464.793"/><text fill="#000000" font-family="sans-serif" font-size="14" lengthAdjust="spacing" textLength="88" x="582" y="1485.3281">OID4VCI SDK</text><rect fill="#E2E2F0" height="46.9766" rx="2.5" ry="2.5" style="stroke:#181818;stroke-width:0.5;" width="152" x="777" y="71"/><text fill="#000000" font-family="sans-serif" font-size="14" lengthAdjust="spacing" textLength="99" x="803.5" y="91.5352">Formatter SDK</text><text fill="#000000" font-family="sans-serif" font-size="14" lengthAdjust="spacing" textLength="138" x="784" y="108.0234">(SD-JWT VC / mDoc)</text><rect fill="#E2E2F0" height="46.9766" rx="2.5" ry="2.5" style="stroke:#181818;stroke-width:0.5;" width="152" x="777" y="1464.793"/><text fill="#000000" font-family="sans-serif" font-size="14" lengthAdjust="spacing" textLength="99" x="803.5" y="1485.3281">Formatter SDK</text><text fill="#000000" font-family="sans-serif" font-size="14" lengthAdjust="spacing" textLength="138" x="784" y="1501.8164">(SD-JWT VC / mDoc)</text><polygon fill="#181818" points="614,161.5977,624,165.5977,614,169.5977,618,165.5977" style="stroke:#181818;stroke-width:1.0;"/><line style="stroke:#181818;stroke-width:1.0;" x1="31" x2="620" y1="165.5977" y2="165.5977"/><text fill="#000000" font-family="sans-serif" font-size="13" font-weight="bold" lengthAdjust="spacing" textLength="9" x="263" y="153.2002">1</text><text fill="#000000" font-family="sans-serif" font-size="13" lengthAdjust="spacing" textLength="74" x="298" y="145.5449">&#48156;&#44553; &#49884;&#51089; &#50836;&#52397;</text><text fill="#000000" font-family="sans-serif" font-size="13" lengthAdjust="spacing" textLength="118" x="276" y="160.8555">(userId, grantType)</text><path d="M311,180.5977 L373,180.5977 L373,187.9082 L363,197.9082 L311,197.9082 L311,180.5977 " fill="#EEEEEE" style="stroke:#000000;stroke-width:1.5;"/><rect fill="none" height="190.8184" style="stroke:#000000;stroke-width:1.5;" width="506" x="311" y="180.5977"/><text fill="#000000" font-family="sans-serif" font-size="13" font-weight="bold" lengthAdjust="spacing" textLength="17" x="326" y="194.166">alt</text><text fill="#000000" font-family="sans-serif" font-size="11" font-weight="bold" lengthAdjust="spacing" textLength="156" x="388" y="193.2324">[Pre-Authorized Code Flow]</text><polygon fill="#181818" points="410,215.2188,400,219.2188,410,223.2188,406,219.2188" style="stroke:#181818;stroke-width:1.0;"/><line style="stroke:#181818;stroke-width:1.0;" x1="404" x2="625" y1="219.2188" y2="219.2188"/><text fill="#000000" font-family="sans-serif" font-size="13" font-weight="bold" lengthAdjust="spacing" textLength="9" x="427" y="214.4766">2</text><text fill="#000000" font-family="sans-serif" font-size="13" lengthAdjust="spacing" textLength="158" x="440" y="214.4766">Pre-Authorized Code &#50836;&#52397;</text><polygon fill="#181818" points="614,244.5293,624,248.5293,614,252.5293,618,248.5293" style="stroke:#181818;stroke-width:1.0;"/><line style="stroke:#181818;stroke-width:1.0;stroke-dasharray:2.0,2.0;" x1="399" x2="620" y1="248.5293" y2="248.5293"/><text fill="#000000" font-family="sans-serif" font-size="13" font-weight="bold" lengthAdjust="spacing" textLength="9" x="411" y="243.7871">3</text><text fill="#000000" font-family="sans-serif" font-size="13" lengthAdjust="spacing" textLength="190" x="424" y="243.7871">pre-authorized_code, tx_code</text><line style="stroke:#181818;stroke-width:1.0;" x1="626" x2="668" y1="277.8398" y2="277.8398"/><line style="stroke:#181818;stroke-width:1.0;" x1="668" x2="668" y1="277.8398" y2="290.8398"/><line style="stroke:#181818;stroke-width:1.0;" x1="627" x2="668" y1="290.8398" y2="290.8398"/><polygon fill="#181818" points="637,286.8398,627,290.8398,637,294.8398,633,290.8398" style="stroke:#181818;stroke-width:1.0;"/><text fill="#000000" font-family="sans-serif" font-size="13" font-weight="bold" lengthAdjust="spacing" textLength="9" x="633" y="273.0977">4</text><text fill="#000000" font-family="sans-serif" font-size="13" lengthAdjust="spacing" textLength="159" x="646" y="273.0977">request_id(p*)&#50752; code &#51200;&#51109;</text><line style="stroke:#000000;stroke-width:1.0;stroke-dasharray:2.0,2.0;" x1="311" x2="817" y1="299.8398" y2="299.8398"/><text fill="#000000" font-family="sans-serif" font-size="11" font-weight="bold" lengthAdjust="spacing" textLength="146" x="316" y="310.4746">[Authorization Code Flow]</text><line style="stroke:#181818;stroke-width:1.0;" x1="626" x2="668" y1="350.416" y2="350.416"/><line style="stroke:#181818;stroke-width:1.0;" x1="668" x2="668" y1="350.416" y2="363.416"/><line style="stroke:#181818;stroke-width:1.0;" x1="627" x2="668" y1="363.416" y2="363.416"/><polygon fill="#181818" points="637,359.416,627,363.416,637,367.416,633,363.416" style="stroke:#181818;stroke-width:1.0;"/><text fill="#000000" font-family="sans-serif" font-size="13" font-weight="bold" lengthAdjust="spacing" textLength="9" x="633" y="338.0186">5</text><text fill="#000000" font-family="sans-serif" font-size="13" lengthAdjust="spacing" textLength="102" x="651.5" y="330.3633">issuer_state &#51200;&#51109;</text><text fill="#000000" font-family="sans-serif" font-size="13" lengthAdjust="spacing" textLength="113" x="646" y="345.6738">request_id(a*) &#49373;&#49457;</text><polygon fill="#181818" points="42,395.7266,32,399.7266,42,403.7266,38,399.7266" style="stroke:#181818;stroke-width:1.0;"/><line style="stroke:#181818;stroke-width:1.0;stroke-dasharray:2.0,2.0;" x1="36" x2="625" y1="399.7266" y2="399.7266"/><text fill="#000000" font-family="sans-serif" font-size="13" font-weight="bold" lengthAdjust="spacing" textLength="9" x="243" y="394.9844">6</text><text fill="#000000" font-family="sans-serif" font-size="13" lengthAdjust="spacing" textLength="158" x="256" y="394.9844">Credential Offer URI / QR</text><polygon fill="#181818" points="151,425.0371,161,429.0371,151,433.0371,155,429.0371" style="stroke:#181818;stroke-width:1.0;"/><line style="stroke:#181818;stroke-width:1.0;" x1="31" x2="157" y1="429.0371" y2="429.0371"/><text fill="#000000" font-family="sans-serif" font-size="13" font-weight="bold" lengthAdjust="spacing" textLength="9" x="43" y="424.2949">7</text><text fill="#000000" font-family="sans-serif" font-size="13" lengthAdjust="spacing" textLength="95" x="56" y="424.2949">QR &#46608;&#45716; URI &#51204;&#45804;</text><polygon fill="#181818" points="614,469.6582,624,473.6582,614,477.6582,618,473.6582" style="stroke:#181818;stroke-width:1.0;"/><line style="stroke:#181818;stroke-width:1.0;" x1="163" x2="620" y1="473.6582" y2="473.6582"/><text fill="#000000" font-family="sans-serif" font-size="13" font-weight="bold" lengthAdjust="spacing" textLength="9" x="280" y="461.2607">8</text><text fill="#000000" font-family="sans-serif" font-size="13" lengthAdjust="spacing" textLength="216" x="293" y="453.6055">GET /credential-offer/{request_id}</text><text fill="#000000" font-family="sans-serif" font-size="13" lengthAdjust="spacing" textLength="177" x="312.5" y="468.916">&#46608;&#45716; credential_offer &#51649;&#51217; &#49324;&#50857;</text><line style="stroke:#181818;stroke-width:1.0;" x1="626" x2="668" y1="502.9688" y2="502.9688"/><line style="stroke:#181818;stroke-width:1.0;" x1="668" x2="668" y1="502.9688" y2="515.9688"/><line style="stroke:#181818;stroke-width:1.0;" x1="627" x2="668" y1="515.9688" y2="515.9688"/><polygon fill="#181818" points="637,511.9688,627,515.9688,637,519.9688,633,515.9688" style="stroke:#181818;stroke-width:1.0;"/><text fill="#000000" font-family="sans-serif" font-size="13" font-weight="bold" lengthAdjust="spacing" textLength="9" x="633" y="498.2266">9</text><text fill="#000000" font-family="sans-serif" font-size="13" lengthAdjust="spacing" textLength="125" x="646" y="498.2266">Offer &#51221;&#48372; &#51312;&#54924; &#48143; &#49373;&#49457;</text><polygon fill="#181818" points="174,556.5898,164,560.5898,174,564.5898,170,560.5898" style="stroke:#181818;stroke-width:1.0;"/><line style="stroke:#181818;stroke-width:1.0;stroke-dasharray:2.0,2.0;" x1="168" x2="625" y1="560.5898" y2="560.5898"/><text fill="#000000" font-family="sans-serif" font-size="13" font-weight="bold" lengthAdjust="spacing" textLength="18" x="277" y="548.1924">10</text><text fill="#000000" font-family="sans-serif" font-size="13" lengthAdjust="spacing" textLength="100" x="355.5" y="540.5371">Credential Offer</text><text fill="#000000" font-family="sans-serif" font-size="13" lengthAdjust="spacing" textLength="213" x="299" y="555.8477">(issuer, configuration_ids, grants)</text><path d="M125.5,575.5898 L187.5,575.5898 L187.5,582.9004 L177.5,592.9004 L125.5,592.9004 L125.5,575.5898 " fill="#EEEEEE" style="stroke:#000000;stroke-width:1.5;"/><rect fill="none" height="180.1289" style="stroke:#000000;stroke-width:1.5;" width="361.5" x="125.5" y="575.5898"/><text fill="#000000" font-family="sans-serif" font-size="13" font-weight="bold" lengthAdjust="spacing" textLength="17" x="140.5" y="589.1582">alt</text><text fill="#000000" font-family="sans-serif" font-size="11" font-weight="bold" lengthAdjust="spacing" textLength="156" x="202.5" y="588.2246">[Pre-Authorized Code Flow]</text><polygon fill="#181818" points="387,625.5215,397,629.5215,387,633.5215,391,629.5215" style="stroke:#181818;stroke-width:1.0;"/><line style="stroke:#181818;stroke-width:1.0;" x1="163" x2="393" y1="629.5215" y2="629.5215"/><text fill="#000000" font-family="sans-serif" font-size="13" font-weight="bold" lengthAdjust="spacing" textLength="18" x="175" y="617.124">11</text><text fill="#000000" font-family="sans-serif" font-size="13" lengthAdjust="spacing" textLength="79" x="252.5" y="609.4688">POST /token</text><text fill="#000000" font-family="sans-serif" font-size="13" lengthAdjust="spacing" textLength="190" x="197" y="624.7793">pre-authorized_code, tx_code</text><line style="stroke:#000000;stroke-width:1.0;stroke-dasharray:2.0,2.0;" x1="125.5" x2="487" y1="638.5215" y2="638.5215"/><text fill="#000000" font-family="sans-serif" font-size="11" font-weight="bold" lengthAdjust="spacing" textLength="146" x="130.5" y="649.1563">[Authorization Code Flow]</text><polygon fill="#181818" points="387,669.7871,397,673.7871,387,677.7871,391,673.7871" style="stroke:#181818;stroke-width:1.0;"/><line style="stroke:#181818;stroke-width:1.0;" x1="163" x2="393" y1="673.7871" y2="673.7871"/><text fill="#000000" font-family="sans-serif" font-size="13" font-weight="bold" lengthAdjust="spacing" textLength="18" x="175" y="669.0449">12</text><text fill="#000000" font-family="sans-serif" font-size="13" lengthAdjust="spacing" textLength="190" x="197" y="669.0449">Authorization Request / Login</text><polygon fill="#181818" points="174,699.0977,164,703.0977,174,707.0977,170,703.0977" style="stroke:#181818;stroke-width:1.0;"/><line style="stroke:#181818;stroke-width:1.0;stroke-dasharray:2.0,2.0;" x1="168" x2="398" y1="703.0977" y2="703.0977"/><text fill="#000000" font-family="sans-serif" font-size="13" font-weight="bold" lengthAdjust="spacing" textLength="18" x="209.5" y="698.3555">13</text><text fill="#000000" font-family="sans-serif" font-size="13" lengthAdjust="spacing" textLength="121" x="231.5" y="698.3555">authorization_code</text><polygon fill="#181818" points="387,743.7188,397,747.7188,387,751.7188,391,747.7188" style="stroke:#181818;stroke-width:1.0;"/><line style="stroke:#181818;stroke-width:1.0;" x1="163" x2="393" y1="747.7188" y2="747.7188"/><text fill="#000000" font-family="sans-serif" font-size="13" font-weight="bold" lengthAdjust="spacing" textLength="18" x="209.5" y="735.3213">14</text><text fill="#000000" font-family="sans-serif" font-size="13" lengthAdjust="spacing" textLength="79" x="252.5" y="727.666">POST /token</text><text fill="#000000" font-family="sans-serif" font-size="13" lengthAdjust="spacing" textLength="121" x="231.5" y="742.9766">authorization_code</text><polygon fill="#181818" points="174,780.0293,164,784.0293,174,788.0293,170,784.0293" style="stroke:#181818;stroke-width:1.0;"/><line style="stroke:#181818;stroke-width:1.0;stroke-dasharray:2.0,2.0;" x1="168" x2="398" y1="784.0293" y2="784.0293"/><text fill="#000000" font-family="sans-serif" font-size="13" font-weight="bold" lengthAdjust="spacing" textLength="18" x="197.5" y="779.2871">15</text><text fill="#000000" font-family="sans-serif" font-size="13" lengthAdjust="spacing" textLength="145" x="219.5" y="779.2871">access_token, c_nonce</text><path d="M125.5,799.0293 L192.5,799.0293 L192.5,806.3398 L182.5,816.3398 L125.5,816.3398 L125.5,799.0293 " fill="#EEEEEE" style="stroke:#000000;stroke-width:1.5;"/><rect fill="none" height="118.2422" style="stroke:#000000;stroke-width:1.5;" width="660.5" x="125.5" y="799.0293"/><text fill="#000000" font-family="sans-serif" font-size="13" font-weight="bold" lengthAdjust="spacing" textLength="22" x="140.5" y="812.5977">opt</text><text fill="#000000" font-family="sans-serif" font-size="11" font-weight="bold" lengthAdjust="spacing" textLength="111" x="207.5" y="811.6641">[c_nonce &#51116;&#48156;&#44553; &#54596;&#50836;]</text><polygon fill="#181818" points="614,833.6504,624,837.6504,614,841.6504,618,837.6504" style="stroke:#181818;stroke-width:1.0;"/><line style="stroke:#181818;stroke-width:1.0;" x1="163" x2="620" y1="837.6504" y2="837.6504"/><text fill="#000000" font-family="sans-serif" font-size="13" font-weight="bold" lengthAdjust="spacing" textLength="18" x="343" y="832.9082">16</text><text fill="#000000" font-family="sans-serif" font-size="13" lengthAdjust="spacing" textLength="81" x="365" y="832.9082">POST /nonce</text><line style="stroke:#181818;stroke-width:1.0;" x1="626" x2="668" y1="866.9609" y2="866.9609"/><line style="stroke:#181818;stroke-width:1.0;" x1="668" x2="668" y1="866.9609" y2="879.9609"/><line style="stroke:#181818;stroke-width:1.0;" x1="627" x2="668" y1="879.9609" y2="879.9609"/><polygon fill="#181818" points="637,875.9609,627,879.9609,637,883.9609,633,879.9609" style="stroke:#181818;stroke-width:1.0;"/><text fill="#000000" font-family="sans-serif" font-size="13" font-weight="bold" lengthAdjust="spacing" textLength="18" x="633" y="862.2188">17</text><text fill="#000000" font-family="sans-serif" font-size="13" lengthAdjust="spacing" textLength="119" x="655" y="862.2188">c_nonce &#49373;&#49457; &#48143; &#51200;&#51109;</text><polygon fill="#181818" points="174,905.2715,164,909.2715,174,913.2715,170,909.2715" style="stroke:#181818;stroke-width:1.0;"/><line style="stroke:#181818;stroke-width:1.0;stroke-dasharray:2.0,2.0;" x1="168" x2="625" y1="909.2715" y2="909.2715"/><text fill="#000000" font-family="sans-serif" font-size="13" font-weight="bold" lengthAdjust="spacing" textLength="18" x="357.5" y="904.5293">18</text><text fill="#000000" font-family="sans-serif" font-size="13" lengthAdjust="spacing" textLength="52" x="379.5" y="904.5293">c_nonce</text><line style="stroke:#181818;stroke-width:1.0;" x1="163" x2="205" y1="960.8926" y2="960.8926"/><line style="stroke:#181818;stroke-width:1.0;" x1="205" x2="205" y1="960.8926" y2="973.8926"/><line style="stroke:#181818;stroke-width:1.0;" x1="164" x2="205" y1="973.8926" y2="973.8926"/><polygon fill="#181818" points="174,969.8926,164,973.8926,174,977.8926,170,973.8926" style="stroke:#181818;stroke-width:1.0;"/><text fill="#000000" font-family="sans-serif" font-size="13" font-weight="bold" lengthAdjust="spacing" textLength="18" x="170" y="948.4951">19</text><text fill="#000000" font-family="sans-serif" font-size="13" lengthAdjust="spacing" textLength="156" x="194" y="940.8398">Holder Binding Proof &#49373;&#49457;</text><text fill="#000000" font-family="sans-serif" font-size="13" lengthAdjust="spacing" textLength="160" x="192" y="956.1504">JWT / DI-VP / Attestation</text><polygon fill="#181818" points="614,1014.5137,624,1018.5137,614,1022.5137,618,1018.5137" style="stroke:#181818;stroke-width:1.0;"/><line style="stroke:#181818;stroke-width:1.0;" x1="163" x2="620" y1="1018.5137" y2="1018.5137"/><text fill="#000000" font-family="sans-serif" font-size="13" font-weight="bold" lengthAdjust="spacing" textLength="18" x="259" y="1006.1162">20</text><text fill="#000000" font-family="sans-serif" font-size="13" lengthAdjust="spacing" textLength="105" x="353" y="998.4609">POST /credential</text><text fill="#000000" font-family="sans-serif" font-size="13" lengthAdjust="spacing" textLength="249" x="281" y="1013.7715">Bearer access_token, CredentialRequest</text><line style="stroke:#181818;stroke-width:1.0;" x1="626" x2="668" y1="1063.1348" y2="1063.1348"/><line style="stroke:#181818;stroke-width:1.0;" x1="668" x2="668" y1="1063.1348" y2="1076.1348"/><line style="stroke:#181818;stroke-width:1.0;" x1="627" x2="668" y1="1076.1348" y2="1076.1348"/><polygon fill="#181818" points="637,1072.1348,627,1076.1348,637,1080.1348,633,1076.1348" style="stroke:#181818;stroke-width:1.0;"/><text fill="#000000" font-family="sans-serif" font-size="13" font-weight="bold" lengthAdjust="spacing" textLength="18" x="633" y="1050.7373">21</text><text fill="#000000" font-family="sans-serif" font-size="13" lengthAdjust="spacing" textLength="191" x="655" y="1043.082">access_token, c_nonce, proof,</text><text fill="#000000" font-family="sans-serif" font-size="13" lengthAdjust="spacing" textLength="175" x="663" y="1058.3926">configuration/identifier &#44160;&#51613;</text><polygon fill="#181818" points="841,1116.7559,851,1120.7559,841,1124.7559,845,1120.7559" style="stroke:#181818;stroke-width:1.0;"/><line style="stroke:#181818;stroke-width:1.0;" x1="626" x2="847" y1="1120.7559" y2="1120.7559"/><text fill="#000000" font-family="sans-serif" font-size="13" font-weight="bold" lengthAdjust="spacing" textLength="18" x="638" y="1108.3584">22</text><text fill="#000000" font-family="sans-serif" font-size="13" lengthAdjust="spacing" textLength="116" x="692.5" y="1100.7031">Credential &#49373;&#49457; &#50836;&#52397;</text><text fill="#000000" font-family="sans-serif" font-size="13" lengthAdjust="spacing" textLength="181" x="660" y="1116.0137">claims, issuer key, proof jwk</text><polygon fill="#181818" points="637,1161.377,627,1165.377,637,1169.377,633,1165.377" style="stroke:#181818;stroke-width:1.0;"/><line style="stroke:#181818;stroke-width:1.0;stroke-dasharray:2.0,2.0;" x1="631" x2="852" y1="1165.377" y2="1165.377"/><text fill="#000000" font-family="sans-serif" font-size="13" font-weight="bold" lengthAdjust="spacing" textLength="18" x="660.5" y="1152.9795">23</text><text fill="#000000" font-family="sans-serif" font-size="13" lengthAdjust="spacing" textLength="64" x="718.5" y="1145.3242">Credential</text><text fill="#000000" font-family="sans-serif" font-size="13" lengthAdjust="spacing" textLength="136" x="682.5" y="1160.6348">SD-JWT VC / mDoc &#46321;</text><polygon fill="#181818" points="174,1205.998,164,1209.998,174,1213.998,170,1209.998" style="stroke:#181818;stroke-width:1.0;"/><line style="stroke:#181818;stroke-width:1.0;stroke-dasharray:2.0,2.0;" x1="168" x2="625" y1="1209.998" y2="1209.998"/><text fill="#000000" font-family="sans-serif" font-size="13" font-weight="bold" lengthAdjust="spacing" textLength="18" x="280.5" y="1197.6006">24</text><text fill="#000000" font-family="sans-serif" font-size="13" lengthAdjust="spacing" textLength="124" x="343.5" y="1189.9453">CredentialResponse</text><text fill="#000000" font-family="sans-serif" font-size="13" lengthAdjust="spacing" textLength="206" x="302.5" y="1205.2559">&#46608;&#45716; 202 Deferred(transaction_id)</text><path d="M125.5,1224.998 L192.5,1224.998 L192.5,1232.3086 L182.5,1242.3086 L125.5,1242.3086 L125.5,1224.998 " fill="#EEEEEE" style="stroke:#000000;stroke-width:1.5;"/><rect fill="none" height="149.8633" style="stroke:#000000;stroke-width:1.5;" width="813.5" x="125.5" y="1224.998"/><text fill="#000000" font-family="sans-serif" font-size="13" font-weight="bold" lengthAdjust="spacing" textLength="22" x="140.5" y="1238.5664">opt</text><text fill="#000000" font-family="sans-serif" font-size="11" font-weight="bold" lengthAdjust="spacing" textLength="81" x="207.5" y="1237.6328">[Deferred &#48156;&#44553;]</text><polygon fill="#181818" points="614,1274.9297,624,1278.9297,614,1282.9297,618,1278.9297" style="stroke:#181818;stroke-width:1.0;"/><line style="stroke:#181818;stroke-width:1.0;" x1="163" x2="620" y1="1278.9297" y2="1278.9297"/><text fill="#000000" font-family="sans-serif" font-size="13" font-weight="bold" lengthAdjust="spacing" textLength="18" x="301.5" y="1266.5322">25</text><text fill="#000000" font-family="sans-serif" font-size="13" lengthAdjust="spacing" textLength="164" x="323.5" y="1258.877">POST /deferred_credential</text><text fill="#000000" font-family="sans-serif" font-size="13" lengthAdjust="spacing" textLength="90" x="360.5" y="1274.1875">transaction_id</text><polygon fill="#181818" points="841,1304.2402,851,1308.2402,841,1312.2402,845,1308.2402" style="stroke:#181818;stroke-width:1.0;"/><line style="stroke:#181818;stroke-width:1.0;" x1="626" x2="847" y1="1308.2402" y2="1308.2402"/><text fill="#000000" font-family="sans-serif" font-size="13" font-weight="bold" lengthAdjust="spacing" textLength="18" x="656" y="1303.498">26</text><text fill="#000000" font-family="sans-serif" font-size="13" lengthAdjust="spacing" textLength="145" x="678" y="1303.498">&#51648;&#50672; Credential &#49373;&#49457;/&#51312;&#54924;</text><polygon fill="#181818" points="637,1333.5508,627,1337.5508,637,1341.5508,633,1337.5508" style="stroke:#181818;stroke-width:1.0;"/><line style="stroke:#181818;stroke-width:1.0;stroke-dasharray:2.0,2.0;" x1="631" x2="852" y1="1337.5508" y2="1337.5508"/><text fill="#000000" font-family="sans-serif" font-size="13" font-weight="bold" lengthAdjust="spacing" textLength="18" x="696.5" y="1332.8086">27</text><text fill="#000000" font-family="sans-serif" font-size="13" lengthAdjust="spacing" textLength="64" x="718.5" y="1332.8086">Credential</text><polygon fill="#181818" points="174,1362.8613,164,1366.8613,174,1370.8613,170,1366.8613" style="stroke:#181818;stroke-width:1.0;"/><line style="stroke:#181818;stroke-width:1.0;stroke-dasharray:2.0,2.0;" x1="168" x2="625" y1="1366.8613" y2="1366.8613"/><text fill="#000000" font-family="sans-serif" font-size="13" font-weight="bold" lengthAdjust="spacing" textLength="18" x="321.5" y="1362.1191">28</text><text fill="#000000" font-family="sans-serif" font-size="13" lengthAdjust="spacing" textLength="124" x="343.5" y="1362.1191">CredentialResponse</text><polygon fill="#181818" points="614,1414.4824,624,1418.4824,614,1422.4824,618,1418.4824" style="stroke:#181818;stroke-width:1.0;"/><line style="stroke:#181818;stroke-width:1.0;" x1="163" x2="620" y1="1418.4824" y2="1418.4824"/><text fill="#000000" font-family="sans-serif" font-size="13" font-weight="bold" lengthAdjust="spacing" textLength="18" x="313.5" y="1406.085">29</text><text fill="#000000" font-family="sans-serif" font-size="13" lengthAdjust="spacing" textLength="116" x="347.5" y="1398.4297">POST /notification</text><text fill="#000000" font-family="sans-serif" font-size="13" lengthAdjust="spacing" textLength="140" x="335.5" y="1413.7402">credential_accepted &#46321;</text><polygon fill="#181818" points="174,1443.793,164,1447.793,174,1451.793,170,1447.793" style="stroke:#181818;stroke-width:1.0;"/><line style="stroke:#181818;stroke-width:1.0;stroke-dasharray:2.0,2.0;" x1="168" x2="625" y1="1447.793" y2="1447.793"/><text fill="#000000" font-family="sans-serif" font-size="13" font-weight="bold" lengthAdjust="spacing" textLength="18" x="303" y="1443.0508">30</text><text fill="#000000" font-family="sans-serif" font-size="13" lengthAdjust="spacing" textLength="161" x="325" y="1443.0508">200 OK / 204 No Content</text><!--SRC=[ZLLTJnD157sVNt63BvIqAI4c9ZoOb9Pg_G81uQL9i-vEoyXsfivE0JKcgBpuaQWHen8WzK6D2IRuyU1leiD_yExiJdUtLBGltNRFFNFlkUVUKKpv5EPgbVFBvHhqZ_QEVpybnEagmRljsrIIO8tnZYETDWJqRfTobrwdGU2qQCbdBGukvIg3aZJe21vOr0prnKP9Ih41IdOfKhjAIBWiV8zAS09ODKy4WnLpMSVX2iPM7D-dQYnylM4U2RajDc6i5WHTAiVWtEnizKArcWqgTTMgaEo-evZWi4ZbUWX52YncDGkrvIvMhXh4kikoWAgGRKTXOI6apiSNAuKhAqkmN8OYj2l2pPcmfaKHoZt030c9ge72nP1pEjOJzFCzVV0QzEwE_l4DwRe1bJKl3os9fotTwz0Swk8hc9UqOCkW7fI5Hw6A-X703nA6l64rqoEH4Rt1XY0es2mw27O6u8QBu3oeJVEGfZPW6NOvK0tcZNScSlh35hY6lBUb3puHwWSKiagFpD9GCTEkHg0SPGdgFCNlJEH0FzdNszz30GaniHWSYJWDPKazj1TpV9XhDb7MMmirRC3DXPJCaJ-cyK_elt_LVxPZGBgttNz-I4ZqTf3GfTabABe3re88MOiFafGUrddCag0Q1WNwooFTmnu-FjIxNqcwp2WttNlR__aBzCUZazqNsFYNjZHRbSrqk2hqGoHK7fNcJTRgIYCifXF45Wd-nnz9hR55vXQnMYNMAA_pCotmpwOEKsUn2v5ys9bheiLure2sQYSTaZZlpAH7n1YVd2PtNTms3HE6AZQum3L5YEWe-mFqmM4yZ2Tljt5IXautZOmEZuA7lJpWCKsD-XkDn02PIiYcOD9DJh6lu-qtmxZ7U0lRAaGpPgxpSD4KeL8hBC_ZTmdtIpX0g00PcMvYr3gVeOuCjsf6ZiHlSQCovXqfNHvN1gQKh_EC8ulC43KPdd7yOqj_thTKWqsOiNUibLrxhk-mDbewSZkiqNlnEN1dOuqCA9AzLKwLDho1eV_chD5QY6-XmJnFJKv1XUAu8MHSuL05U155KvQBd6BVsalmhmRnOc0ZBNsMCcsVb3RwovP-TtHQecAqDKpKcJgCDDlfgeTzbt5ts43Nz1DRacovq0WT5PO_GjYfoKcOkuhIJqsUXni2rmFU-boHFm00]--></g></svg>